<svg width="64" height="64" viewBox="0 0 64 64" fill="none" xmlns="http://www.w3.org/2000/svg">
<path d="M31.021 12.0444V22.0444C31.021 22.5967 31.4687 23.0444 32.021 23.0444C32.5733 23.0444 33.021 22.5967 33.021 22.0444V12.0444C33.021 11.4921 32.5733 11.0444 32.021 11.0444C31.4687 11.0444 31.021 11.4921 31.021 12.0444Z" fill="#183B56"/>
<path d="M31 15H33C34.6569 15 36 16.3431 36 18V24H28V18C28 16.3431 29.3431 15 31 15Z" fill="#183B56"/>
<path d="M34 22V18C34 17.4477 33.5523 17 33 17H31C30.4477 17 30 17.4477 30 18V22H34Z" fill="#36B37E"/>
<path d="M22.8195 44.7496L21.765 48.2739C21.2154 51.022 18.8025 53.0001 16 53.0001C13.2386 53.0001 11 50.7615 11.0032 47.9203L12.268 32.1105C12.74 26.2103 17.005 21.3079 22.7831 20.0239L23.1058 19.9522C28.9638 18.6504 35.0362 18.6504 40.8941 19.9522L41.2169 20.0239C46.995 21.3079 51.26 26.2103 51.732 32.1105L53 48.0001C53 50.7615 50.7614 53.0001 48 53.0001C45.1975 53.0001 42.7846 51.022 42.2572 48.3634L41.1799 44.7493C35.2813 42.4207 28.718 42.4208 22.8195 44.7496Z" fill="#183B56"/>
<path d="M42.9583 43.7144L44.1961 47.8816C44.5588 49.6949 46.1509 51.0001 48 51.0001C49.6569 51.0001 51 49.6569 51.0032 48.0798L49.7384 32.27C49.3364 27.245 45.7041 23.0698 40.7831 21.9763L40.4603 21.9045C34.8881 20.6663 29.1119 20.6663 23.5397 21.9045L23.2169 21.9763C18.2959 23.0698 14.6636 27.245 14.2616 32.27L13 48.0001C13 49.6569 14.3431 51.0001 16 51.0001C17.8491 51.0001 19.4412 49.6949 19.8261 47.7921L21.0417 43.7144C21.1289 43.4218 21.3451 43.185 21.6286 43.0716L21.9725 42.9341C28.4095 40.3592 35.5905 40.3592 42.0275 42.9341L42.3714 43.0716C42.6549 43.185 42.8711 43.4218 42.9583 43.7144Z" fill="white"/>
<path fill-rule="evenodd" clip-rule="evenodd" d="M25.9672 30.9672H27.9672C29.0718 30.9672 29.9672 31.8626 29.9672 32.9672C29.9672 34.0718 29.0718 34.9672 27.9672 34.9672H25.9672V36.9672C25.9672 38.0718 25.0718 38.9672 23.9672 38.9672C22.8626 38.9672 21.9672 38.0718 21.9672 36.9672V34.9672H20.0336C18.9236 34.9672 18.0186 34.0771 18.0003 32.9672C18.0001 32.9564 18 32.9455 18 32.9347C18 31.8481 18.8809 30.9672 19.9675 30.9672H21.9672V29.0336C21.9672 27.9236 22.8573 27.0186 23.9672 27.0003C23.9781 27.0001 23.9889 27 23.9997 27C25.0863 27 25.9672 27.8809 25.9672 28.9675V30.9672Z" fill="#36B37E"/>
<circle cx="41" cy="28" r="2" fill="#FFC200"/>
<circle cx="41" cy="36" r="2" fill="#FFC200"/>
<circle cx="37" cy="32" r="2" fill="#FFC200"/>
<circle cx="45" cy="32" r="2" fill="#FFC200"/>
</svg>
