<svg width="64" height="64" viewBox="0 0 64 64" fill="none" xmlns="http://www.w3.org/2000/svg">
<path d="M47 42V44C47 48.9706 42.9706 53 38 53C33.0294 53 29 48.9706 29 44V38H27V44C27 50.0751 31.9249 55 38 55C44.0751 55 49 50.0751 49 44V42H47Z" fill="#183B56"/>
<path d="M48 44C51.3137 44 54 41.3137 54 38C54 34.6863 51.3137 32 48 32C44.6863 32 42 34.6863 42 38C42 41.3137 44.6863 44 48 44Z" fill="#183B56"/>
<path d="M48 42C45.7909 42 44 40.2091 44 38C44 35.7909 45.7909 34 48 34C50.2091 34 52 35.7909 52 38C52 40.2091 50.2091 42 48 42Z" fill="white"/>
<circle cx="48" cy="38" r="2" fill="#FFC200"/>
<path d="M34.8866 18H33C32.4477 18 32 17.5523 32 17V14C32 13.4477 32.4477 13 33 13H37.444C39.1009 13 40.444 14.3431 40.444 16C40.444 16.2432 40.4145 16.4854 40.356 16.7215L35.4008 36.7215C35.0692 38.06 33.8679 39 32.4889 39H23.5875C22.2121 39 21.0129 38.0647 20.6779 36.7308L15.6548 16.7308C15.2512 15.1238 16.2267 13.494 17.8337 13.0904C18.0726 13.0304 18.3181 13 18.5644 13L23 13C23.5523 13 24 13.4477 24 14V17C24 17.5523 23.5523 18 23 18H21.1135L24.796 34H31.204L34.8866 18Z" fill="#183B56"/>
<path d="M22 15H18.5644C18.4823 15 18.4005 15.0101 18.3209 15.0301C17.7852 15.1647 17.46 15.7079 17.5946 16.2436L22.6177 36.2436C22.7293 36.6882 23.1291 37 23.5875 37H32.4889C32.9486 37 33.349 36.6867 33.4596 36.2405L38.4147 16.2405C38.4342 16.1618 38.444 16.0811 38.444 16C38.444 15.4477 37.9963 15 37.444 15H34V16H36.1429C36.7857 16 37.2616 16.5978 37.1174 17.2243L32.9745 35.2243C32.8701 35.6783 32.4659 36 32 36H24C23.5342 36 23.13 35.6783 23.0255 35.2243L18.8826 17.2243C18.7385 16.5978 19.2143 16 19.8572 16H22V15Z" fill="#36B37E"/>
<path d="M25 38C25 37.4477 25.4477 37 26 37H30C30.5523 37 31 37.4477 31 38V41C31 41.5523 30.5523 42 30 42H26C25.4477 42 25 41.5523 25 41V38Z" fill="#183B56"/>
<path d="M27 39V40H29V39H27Z" fill="white"/>
</svg>
