<svg width="64" height="64" viewBox="0 0 64 64" fill="none" xmlns="http://www.w3.org/2000/svg">
<path d="M16 14H26C27.6569 14 29 15.3431 29 17V27C29 28.6569 27.6569 30 26 30H16C14.3431 30 13 28.6569 13 27V17C13 15.3431 14.3431 14 16 14Z" fill="#183B56"/>
<path d="M16 16C15.4477 16 15 16.4477 15 17V27C15 27.5523 15.4477 28 16 28H26C26.5523 28 27 27.5523 27 27V17C27 16.4477 26.5523 16 26 16H16Z" fill="#FFC200"/>
<path d="M38 14H48C49.6569 14 51 15.3431 51 17V27C51 28.6569 49.6569 30 48 30H38C36.3431 30 35 28.6569 35 27V17C35 15.3431 36.3431 14 38 14Z" fill="#183B56"/>
<path d="M38 16C37.4477 16 37 16.4477 37 17V27C37 27.5523 37.4477 28 38 28H48C48.5523 28 49 27.5523 49 27V17C49 16.4477 48.5523 16 48 16H38Z" fill="white"/>
<path d="M16 35H26C27.6569 35 29 36.3431 29 38V48C29 49.6569 27.6569 51 26 51H16C14.3431 51 13 49.6569 13 48V38C13 36.3431 14.3431 35 16 35Z" fill="#183B56"/>
<path d="M16 37C15.4477 37 15 37.4477 15 38V48C15 48.5523 15.4477 49 16 49H26C26.5523 49 27 48.5523 27 48V38C27 37.4477 26.5523 37 26 37H16Z" fill="white"/>
<path d="M38 35H48C49.6569 35 51 36.3431 51 38V48C51 49.6569 49.6569 51 48 51H38C36.3431 51 35 49.6569 35 48V38C35 36.3431 36.3431 35 38 35Z" fill="#183B56"/>
<path d="M38 37C37.4477 37 37 37.4477 37 38V48C37 48.5523 37.4477 49 38 49H48C48.5523 49 49 48.5523 49 48V38C49 37.4477 48.5523 37 48 37H38Z" fill="#36B37E"/>
</svg>
