<svg width="64" height="64" viewBox="0 0 64 64" fill="none" xmlns="http://www.w3.org/2000/svg">
<path d="M32 53C43.598 53 53 43.598 53 32C53 20.402 43.598 11 32 11C20.402 11 11 20.402 11 32C11 43.598 20.402 53 32 53Z" fill="#183B56"/>
<path d="M32 51C21.5066 51 13 42.4934 13 32C13 21.5066 21.5066 13 32 13C42.4934 13 51 21.5066 51 32C51 42.4934 42.4934 51 32 51Z" fill="white"/>
<path d="M48.7059 42C49.5025 42 49.9793 42.8859 49.5406 43.5507C47.0995 47.2507 43.5404 50.103 39.3857 51.6641C38.6816 51.9287 37.9484 51.3504 38.0417 50.604L39.0077 42.876C39.0703 42.3755 39.4957 42 40 42L48.7059 42Z" fill="#183B56"/>
<path d="M40.8828 44L40.2422 49.1242C42.7537 47.9129 44.9709 46.1592 46.7318 44L40.8828 44Z" fill="#FFC200"/>
<path d="M26 50.7408C26 51.4385 25.3035 51.9217 24.6499 51.6775C20.4802 50.1194 16.9076 47.2615 14.4593 43.5507C14.0207 42.8859 14.4975 42 15.294 42L23.0362 42C23.4845 42 23.878 42.2983 23.9991 42.7299L25.9628 49.7299C25.9875 49.8178 26 49.9087 26 50V50.7408Z" fill="#183B56"/>
<path d="M22.2782 44L17.2682 44C19.0178 46.1453 21.2177 47.8903 23.7091 49.1007L22.2782 44Z" fill="#36B37E"/>
<path d="M11 32C11 28.2625 11.9786 24.6653 13.81 21.4993C13.9888 21.1903 14.3187 21 14.6756 21H15C15.3344 21 15.6466 21.1671 15.8321 21.4453L19.8321 27.4453C20.1314 27.8944 20.0204 28.5001 19.5812 28.8138L12.6049 33.7964C11.9609 34.2564 11.0631 33.8215 11.0249 33.031C11.0083 32.6884 11 32.3447 11 32Z" fill="#183B56"/>
<path d="M17.6308 27.7489L14.9154 23.6758C13.8003 25.9594 13.1526 28.4531 13.0239 31.0394L17.6308 27.7489Z" fill="#FFC200"/>
<path d="M53 31.9999C53 32.3446 52.9917 32.6883 52.9751 33.0309C52.9369 33.8213 52.0391 34.2563 51.3951 33.7963L44.4188 28.8136C43.979 28.4995 43.8684 27.8928 44.169 27.4436L48.169 21.4681C48.3546 21.1909 48.6663 21.0244 49 21.0244L49.3385 21.0244C49.696 21.0244 50.0263 21.2152 50.2049 21.5249C52.0268 24.6848 53 28.2726 53 31.9999Z" fill="#183B56"/>
<path d="M49.0902 23.6875L46.3707 27.7502L50.9761 31.0395C50.8476 28.4577 50.2019 25.968 49.0902 23.6875Z" fill="#36B37E"/>
<path d="M25.3429 13.6694C24.7539 13.156 24.9549 12.1957 25.7004 11.9616C27.7219 11.3266 29.8395 11 32 11C34.1649 11 36.2868 11.328 38.3121 11.9655C39.0577 12.2002 39.2578 13.1611 38.6679 13.674L32.6561 18.9006C32.2795 19.228 31.7191 19.2276 31.3429 18.8997L25.3429 13.6694Z" fill="#183B56"/>
<path d="M32.0009 16.8201L35.9277 13.4062C34.6473 13.1372 33.3332 13 32 13C30.6703 13 29.3595 13.1365 28.0823 13.4041L32.0009 16.8201Z" fill="#36B37E"/>
<path fill-rule="evenodd" clip-rule="evenodd" d="M32.6 23.2C32.2444 22.9333 31.7556 22.9333 31.4 23.2L23.4 29.2C23.0557 29.4583 22.9152 29.9079 23.0513 30.3162L26.0513 39.3162C26.1874 39.7246 26.5696 40 27 40H37C37.4304 40 37.8126 39.7246 37.9487 39.3162L40.9487 30.3162C41.0848 29.9079 40.9443 29.4583 40.6 29.2L32.6 23.2ZM27.7208 38L25.1766 30.3675L32 25.25L38.8234 30.3675L36.2792 38H27.7208Z" fill="#183B56"/>
<path d="M24.3714 29.0715L19.3714 27.0715L18.6286 28.9285L23.6286 30.9285L24.3714 29.0715Z" fill="#183B56"/>
<path d="M26.2929 38.293L22.2929 42.293L23.7071 43.7072L27.7071 39.7072L26.2929 38.293Z" fill="#183B56"/>
<path d="M37.8 38.3999L40.8 42.3999L39.2 43.5999L36.2 39.5999L37.8 38.3999Z" fill="#183B56"/>
<path d="M45.3714 28.9285L40.3714 30.9285L39.6286 29.0715L44.6286 27.0715L45.3714 28.9285Z" fill="#183B56"/>
<path d="M33.0059 24.1299V17.9907H31.0059V24.1299H33.0059Z" fill="#183B56"/>
</svg>
