<svg width="64" height="64" viewBox="0 0 64 64" fill="none" xmlns="http://www.w3.org/2000/svg">
<path d="M16 17H48C50.7614 17 53 19.2386 53 22V40C53 42.7614 50.7614 45 48 45H16C13.2386 45 11 42.7614 11 40V22C11 19.2386 13.2386 17 16 17Z" fill="#183B56"/>
<path d="M16 19C14.3431 19 13 20.3431 13 22V40C13 41.6569 14.3431 43 16 43H48C49.6569 43 51 41.6569 51 40V22C51 20.3431 49.6569 19 48 19H16Z" fill="white"/>
<path fill-rule="evenodd" clip-rule="evenodd" d="M44.8048 35.3508L46.7241 36.8961C47.1836 37.2661 47.3239 37.9088 47.0607 38.4385C46.8115 38.9401 46.2055 39.1434 45.7071 38.8926L43 37.5304L40.2929 38.8926C39.7945 39.1434 39.1885 38.9401 38.9393 38.4385C38.6761 37.9088 38.8164 37.2661 39.2759 36.8961L41.1952 35.3508V31.5366L38.5225 32.6125C37.993 32.8257 37.3896 32.5948 37.1346 32.0815C36.8702 31.5494 37.0043 30.9042 37.4584 30.5233L41.1952 27.3894V24.8163C41.1952 23.8132 42.0033 23 43 23C43.9967 23 44.8048 23.8132 44.8048 24.8163V27.3894L48.5416 30.5233C48.9957 30.9042 49.1298 31.5494 48.8654 32.0815C48.6104 32.5948 48.007 32.8257 47.4775 32.6125L44.8048 31.5366V35.3508Z" fill="#FFC200"/>
<path d="M17 31H23C23.5523 31 24 30.5523 24 30C24 29.4477 23.5523 29 23 29H17C16.4477 29 16 29.4477 16 30C16 30.5523 16.4477 31 17 31Z" fill="#36B37E"/>
<path d="M17 35H29C29.5523 35 30 34.5523 30 34C30 33.4477 29.5523 33 29 33H17C16.4477 33 16 33.4477 16 34C16 34.5523 16.4477 35 17 35Z" fill="#36B37E"/>
<path d="M17 39H34C34.5523 39 35 38.5523 35 38C35 37.4477 34.5523 37 34 37H17C16.4477 37 16 37.4477 16 38C16 38.5523 16.4477 39 17 39Z" fill="#36B37E"/>
<path d="M47.815 42.9993C48.4809 42.9973 48.9627 43.6347 48.7791 44.2749L47.5463 48.5741C46.7852 51.2285 44.0163 52.7634 41.3618 52.0022L17.1113 45.0485C15.9988 44.7295 16.2267 43.0906 17.384 43.0872L47.815 42.9993Z" fill="#183B56"/>
<path d="M24.4313 45.0669L41.9131 50.0797C43.5058 50.5364 45.1671 49.6155 45.6238 48.0229L46.4897 45.0032L24.4313 45.0669Z" fill="#36B37E"/>
<path d="M22 21V22C22 23.1046 21.1046 24 20 24C18.8954 24 18 23.1046 18 22V15C18 13.8954 18.8954 13 20 13C21.1046 13 22 13.8954 22 15V18C22 18.5523 22.4477 19 23 19C23.5523 19 24 18.5523 24 18V15C24 12.7909 22.2091 11 20 11C17.7909 11 16 12.7909 16 15V22C16 24.2091 17.7909 26 20 26C22.2091 26 24 24.2091 24 22V21C24 20.4477 23.5523 20 23 20C22.4477 20 22 20.4477 22 21Z" fill="#183B56"/>
</svg>
