<svg width="393" height="421" viewBox="0 0 393 421" fill="none" xmlns="http://www.w3.org/2000/svg">
<rect x="243" y="271" width="150" height="150" fill="#FAAD13"/>
<rect x="34" width="329" height="421" rx="8" fill="#FC5A5A"/>
<path opacity="0.1" fill-rule="evenodd" clip-rule="evenodd" d="M118.412 233.22C120.393 233.22 122 231.604 122 229.61C122 227.616 120.393 226 118.412 226C116.43 226 114.824 227.616 114.824 229.61C114.824 231.604 116.43 233.22 118.412 233.22ZM122 248.864C122 250.858 120.393 252.475 118.412 252.475C116.43 252.475 114.824 250.858 114.824 248.864C114.824 246.871 116.43 245.254 118.412 245.254C120.393 245.254 122 246.871 122 248.864ZM118.412 271.729C120.393 271.729 122 270.112 122 268.119C122 266.125 120.393 264.508 118.412 264.508C116.43 264.508 114.824 266.125 114.824 268.119C114.824 270.112 116.43 271.729 118.412 271.729ZM122 287.373C122 289.367 120.393 290.983 118.412 290.983C116.43 290.983 114.824 289.367 114.824 287.373C114.824 285.379 116.43 283.763 118.412 283.763C120.393 283.763 122 285.379 122 287.373ZM118.412 310.237C120.393 310.237 122 308.621 122 306.627C122 304.633 120.393 303.017 118.412 303.017C116.43 303.017 114.824 304.633 114.824 306.627C114.824 308.621 116.43 310.237 118.412 310.237ZM122 325.881C122 327.875 120.393 329.492 118.412 329.492C116.43 329.492 114.824 327.875 114.824 325.881C114.824 323.888 116.43 322.271 118.412 322.271C120.393 322.271 122 323.888 122 325.881ZM118.412 348.746C120.393 348.746 122 347.129 122 345.136C122 343.142 120.393 341.525 118.412 341.525C116.43 341.525 114.824 343.142 114.824 345.136C114.824 347.129 116.43 348.746 118.412 348.746ZM7.17647 364.39C7.17647 366.384 5.56996 368 3.58824 368C1.60651 368 0 366.384 0 364.39C0 362.396 1.60651 360.78 3.58824 360.78C5.56996 360.78 7.17647 362.396 7.17647 364.39ZM22.7255 368C24.7072 368 26.3137 366.384 26.3137 364.39C26.3137 362.396 24.7072 360.78 22.7255 360.78C20.7438 360.78 19.1373 362.396 19.1373 364.39C19.1373 366.384 20.7438 368 22.7255 368ZM45.451 364.39C45.451 366.384 43.8445 368 41.8627 368C39.881 368 38.2745 366.384 38.2745 364.39C38.2745 362.396 39.881 360.78 41.8627 360.78C43.8445 360.78 45.451 362.396 45.451 364.39ZM61 368C62.9817 368 64.5882 366.384 64.5882 364.39C64.5882 362.396 62.9817 360.78 61 360.78C59.0183 360.78 57.4118 362.396 57.4118 364.39C57.4118 366.384 59.0183 368 61 368ZM83.7255 364.39C83.7255 366.384 82.119 368 80.1373 368C78.1555 368 76.549 366.384 76.549 364.39C76.549 362.396 78.1555 360.78 80.1373 360.78C82.119 360.78 83.7255 362.396 83.7255 364.39ZM99.2745 368C101.256 368 102.863 366.384 102.863 364.39C102.863 362.396 101.256 360.78 99.2745 360.78C97.2928 360.78 95.6863 362.396 95.6863 364.39C95.6863 366.384 97.2928 368 99.2745 368ZM118.412 368C120.393 368 122 366.384 122 364.39C122 362.396 120.393 360.78 118.412 360.78C116.43 360.78 114.824 362.396 114.824 364.39C114.824 366.384 116.43 368 118.412 368ZM102.863 345.136C102.863 347.129 101.256 348.746 99.2745 348.746C97.2928 348.746 95.6863 347.129 95.6863 345.136C95.6863 343.142 97.2928 341.525 99.2745 341.525C101.256 341.525 102.863 343.142 102.863 345.136ZM80.1373 348.746C82.119 348.746 83.7255 347.129 83.7255 345.136C83.7255 343.142 82.119 341.525 80.1373 341.525C78.1555 341.525 76.549 343.142 76.549 345.136C76.549 347.129 78.1555 348.746 80.1373 348.746ZM64.5882 345.136C64.5882 347.129 62.9817 348.746 61 348.746C59.0183 348.746 57.4118 347.129 57.4118 345.136C57.4118 343.142 59.0183 341.525 61 341.525C62.9817 341.525 64.5882 343.142 64.5882 345.136ZM41.8627 348.746C43.8445 348.746 45.451 347.129 45.451 345.136C45.451 343.142 43.8445 341.525 41.8627 341.525C39.881 341.525 38.2745 343.142 38.2745 345.136C38.2745 347.129 39.881 348.746 41.8627 348.746ZM26.3137 345.136C26.3137 347.129 24.7072 348.746 22.7255 348.746C20.7438 348.746 19.1373 347.129 19.1373 345.136C19.1373 343.142 20.7438 341.525 22.7255 341.525C24.7072 341.525 26.3137 343.142 26.3137 345.136ZM3.58824 348.746C5.56996 348.746 7.17647 347.129 7.17647 345.136C7.17647 343.142 5.56996 341.525 3.58824 341.525C1.60651 341.525 0 343.142 0 345.136C0 347.129 1.60651 348.746 3.58824 348.746ZM99.2745 329.492C101.256 329.492 102.863 327.875 102.863 325.881C102.863 323.888 101.256 322.271 99.2745 322.271C97.2928 322.271 95.6863 323.888 95.6863 325.881C95.6863 327.875 97.2928 329.492 99.2745 329.492ZM83.7255 325.881C83.7255 327.875 82.119 329.492 80.1373 329.492C78.1555 329.492 76.549 327.875 76.549 325.881C76.549 323.888 78.1555 322.271 80.1373 322.271C82.119 322.271 83.7255 323.888 83.7255 325.881ZM61 329.492C62.9817 329.492 64.5882 327.875 64.5882 325.881C64.5882 323.888 62.9817 322.271 61 322.271C59.0183 322.271 57.4118 323.888 57.4118 325.881C57.4118 327.875 59.0183 329.492 61 329.492ZM45.451 325.881C45.451 327.875 43.8445 329.492 41.8627 329.492C39.881 329.492 38.2745 327.875 38.2745 325.881C38.2745 323.888 39.881 322.271 41.8627 322.271C43.8445 322.271 45.451 323.888 45.451 325.881ZM22.7255 329.492C24.7072 329.492 26.3137 327.875 26.3137 325.881C26.3137 323.888 24.7072 322.271 22.7255 322.271C20.7438 322.271 19.1373 323.888 19.1373 325.881C19.1373 327.875 20.7438 329.492 22.7255 329.492ZM7.17647 325.881C7.17647 327.875 5.56996 329.492 3.58824 329.492C1.60651 329.492 0 327.875 0 325.881C0 323.888 1.60651 322.271 3.58824 322.271C5.56996 322.271 7.17647 323.888 7.17647 325.881ZM102.863 306.627C102.863 308.621 101.256 310.237 99.2745 310.237C97.2928 310.237 95.6863 308.621 95.6863 306.627C95.6863 304.633 97.2928 303.017 99.2745 303.017C101.256 303.017 102.863 304.633 102.863 306.627ZM80.1373 310.237C82.119 310.237 83.7255 308.621 83.7255 306.627C83.7255 304.633 82.119 303.017 80.1373 303.017C78.1555 303.017 76.549 304.633 76.549 306.627C76.549 308.621 78.1555 310.237 80.1373 310.237ZM64.5882 306.627C64.5882 308.621 62.9817 310.237 61 310.237C59.0183 310.237 57.4118 308.621 57.4118 306.627C57.4118 304.633 59.0183 303.017 61 303.017C62.9817 303.017 64.5882 304.633 64.5882 306.627ZM41.8627 310.237C43.8445 310.237 45.451 308.621 45.451 306.627C45.451 304.633 43.8445 303.017 41.8627 303.017C39.881 303.017 38.2745 304.633 38.2745 306.627C38.2745 308.621 39.881 310.237 41.8627 310.237ZM26.3137 306.627C26.3137 308.621 24.7072 310.237 22.7255 310.237C20.7438 310.237 19.1373 308.621 19.1373 306.627C19.1373 304.633 20.7438 303.017 22.7255 303.017C24.7072 303.017 26.3137 304.633 26.3137 306.627ZM3.58824 310.237C5.56996 310.237 7.17647 308.621 7.17647 306.627C7.17647 304.633 5.56996 303.017 3.58824 303.017C1.60651 303.017 0 304.633 0 306.627C0 308.621 1.60651 310.237 3.58824 310.237ZM99.2745 290.983C101.256 290.983 102.863 289.367 102.863 287.373C102.863 285.379 101.256 283.763 99.2745 283.763C97.2928 283.763 95.6863 285.379 95.6863 287.373C95.6863 289.367 97.2928 290.983 99.2745 290.983ZM83.7255 287.373C83.7255 289.367 82.119 290.983 80.1373 290.983C78.1555 290.983 76.549 289.367 76.549 287.373C76.549 285.379 78.1555 283.763 80.1373 283.763C82.119 283.763 83.7255 285.379 83.7255 287.373ZM61 290.983C62.9817 290.983 64.5882 289.367 64.5882 287.373C64.5882 285.379 62.9817 283.763 61 283.763C59.0183 283.763 57.4118 285.379 57.4118 287.373C57.4118 289.367 59.0183 290.983 61 290.983ZM45.451 287.373C45.451 289.367 43.8445 290.983 41.8627 290.983C39.881 290.983 38.2745 289.367 38.2745 287.373C38.2745 285.379 39.881 283.763 41.8627 283.763C43.8445 283.763 45.451 285.379 45.451 287.373ZM22.7255 290.983C24.7072 290.983 26.3137 289.367 26.3137 287.373C26.3137 285.379 24.7072 283.763 22.7255 283.763C20.7438 283.763 19.1373 285.379 19.1373 287.373C19.1373 289.367 20.7438 290.983 22.7255 290.983ZM7.17647 287.373C7.17647 289.367 5.56996 290.983 3.58824 290.983C1.60651 290.983 0 289.367 0 287.373C0 285.379 1.60651 283.763 3.58824 283.763C5.56996 283.763 7.17647 285.379 7.17647 287.373ZM102.863 268.119C102.863 270.112 101.256 271.729 99.2745 271.729C97.2928 271.729 95.6863 270.112 95.6863 268.119C95.6863 266.125 97.2928 264.508 99.2745 264.508C101.256 264.508 102.863 266.125 102.863 268.119ZM80.1373 271.729C82.119 271.729 83.7255 270.112 83.7255 268.119C83.7255 266.125 82.119 264.508 80.1373 264.508C78.1555 264.508 76.549 266.125 76.549 268.119C76.549 270.112 78.1555 271.729 80.1373 271.729ZM64.5882 268.119C64.5882 270.112 62.9817 271.729 61 271.729C59.0183 271.729 57.4118 270.112 57.4118 268.119C57.4118 266.125 59.0183 264.508 61 264.508C62.9817 264.508 64.5882 266.125 64.5882 268.119ZM41.8627 271.729C43.8445 271.729 45.451 270.112 45.451 268.119C45.451 266.125 43.8445 264.508 41.8627 264.508C39.881 264.508 38.2745 266.125 38.2745 268.119C38.2745 270.112 39.881 271.729 41.8627 271.729ZM26.3137 268.119C26.3137 270.112 24.7072 271.729 22.7255 271.729C20.7438 271.729 19.1373 270.112 19.1373 268.119C19.1373 266.125 20.7438 264.508 22.7255 264.508C24.7072 264.508 26.3137 266.125 26.3137 268.119ZM3.58824 271.729C5.56996 271.729 7.17647 270.112 7.17647 268.119C7.17647 266.125 5.56996 264.508 3.58824 264.508C1.60651 264.508 0 266.125 0 268.119C0 270.112 1.60651 271.729 3.58824 271.729ZM99.2745 252.475C101.256 252.475 102.863 250.858 102.863 248.864C102.863 246.871 101.256 245.254 99.2745 245.254C97.2928 245.254 95.6863 246.871 95.6863 248.864C95.6863 250.858 97.2928 252.475 99.2745 252.475ZM83.7255 248.864C83.7255 250.858 82.119 252.475 80.1373 252.475C78.1555 252.475 76.549 250.858 76.549 248.864C76.549 246.871 78.1555 245.254 80.1373 245.254C82.119 245.254 83.7255 246.871 83.7255 248.864ZM61 252.475C62.9817 252.475 64.5882 250.858 64.5882 248.864C64.5882 246.871 62.9817 245.254 61 245.254C59.0183 245.254 57.4118 246.871 57.4118 248.864C57.4118 250.858 59.0183 252.475 61 252.475ZM45.451 248.864C45.451 250.858 43.8445 252.475 41.8627 252.475C39.881 252.475 38.2745 250.858 38.2745 248.864C38.2745 246.871 39.881 245.254 41.8627 245.254C43.8445 245.254 45.451 246.871 45.451 248.864ZM22.7255 252.475C24.7072 252.475 26.3137 250.858 26.3137 248.864C26.3137 246.871 24.7072 245.254 22.7255 245.254C20.7438 245.254 19.1373 246.871 19.1373 248.864C19.1373 250.858 20.7438 252.475 22.7255 252.475ZM7.17647 248.864C7.17647 250.858 5.56996 252.475 3.58824 252.475C1.60651 252.475 0 250.858 0 248.864C0 246.871 1.60651 245.254 3.58824 245.254C5.56996 245.254 7.17647 246.871 7.17647 248.864ZM102.863 229.61C102.863 231.604 101.256 233.22 99.2745 233.22C97.2928 233.22 95.6863 231.604 95.6863 229.61C95.6863 227.616 97.2928 226 99.2745 226C101.256 226 102.863 227.616 102.863 229.61ZM80.1373 233.22C82.119 233.22 83.7255 231.604 83.7255 229.61C83.7255 227.616 82.119 226 80.1373 226C78.1555 226 76.549 227.616 76.549 229.61C76.549 231.604 78.1555 233.22 80.1373 233.22ZM64.5882 229.61C64.5882 231.604 62.9817 233.22 61 233.22C59.0183 233.22 57.4118 231.604 57.4118 229.61C57.4118 227.616 59.0183 226 61 226C62.9817 226 64.5882 227.616 64.5882 229.61ZM41.8627 233.22C43.8445 233.22 45.451 231.604 45.451 229.61C45.451 227.616 43.8445 226 41.8627 226C39.881 226 38.2745 227.616 38.2745 229.61C38.2745 231.604 39.881 233.22 41.8627 233.22ZM26.3137 229.61C26.3137 231.604 24.7072 233.22 22.7255 233.22C20.7438 233.22 19.1373 231.604 19.1373 229.61C19.1373 227.616 20.7438 226 22.7255 226C24.7072 226 26.3137 227.616 26.3137 229.61ZM3.58824 233.22C5.56996 233.22 7.17647 231.604 7.17647 229.61C7.17647 227.616 5.56996 226 3.58824 226C1.60651 226 0 227.616 0 229.61C0 231.604 1.60651 233.22 3.58824 233.22Z" fill="#5A7184"/>
<circle cx="34" cy="24" r="24" fill="#1565D8"/>
</svg>
